<?xml version="1.0" standalone="no"?>
<!DOCTYPE svg PUBLIC "-//W3C//DTD SVG 20010904//EN"
 "http://www.w3.org/TR/2001/REC-SVG-20010904/DTD/svg10.dtd">
<svg version="1.0" xmlns="http://www.w3.org/2000/svg"
 width="800.000000pt" height="600.000000pt" viewBox="0 0 800.000000 600.000000"
 preserveAspectRatio="xMidYMid meet">

<g transform="translate(0.000000,600.000000) scale(0.100000,-0.100000)" stroke="none">
<path d="M2660 4780 l1355 0 1355 0 0 430 0 430 -925 0 -925 0 0 -860z" fill="#404040"/>
<path d="M2660 3451 l1355 0 1355 0 0 430 0 430 -925 0 -925 0 0 -860z" fill="#404040"/>
<path d="M2660 2090 l1355 0 1355 0 0 430 0 430 -925 0 -925 0 0 -860z" fill="#404040"/>
<path d="M2660 5640 l0 -3550 861 0 0 3550z" fill="#ffffff"/>
<path d="M1444 1818 c-14 -24 -39 -64 -55 -89 -16 -25 -29 -51 -29 -57 0 -8
21 -12 59 -12 l60 0 65 94 c36 52 66 97 66 100 0 3 -31 6 -70 6 l-70 0 -26
-42z" fill="#ffffff"/>
<path d="M1370 1230 l0 -390 80 0 80 0 0 390 0 390 -80 0 -80 0 0 -390z" fill="#ffffff"/>
<path d="M1714 1595 l-24 -24 2 -363 3 -363 75 0 75 0 3 308 c2 283 4 308 19
305 11 -2 59 -95 144 -281 70 -153 135 -287 144 -297 26 -29 80 -43 151 -38
95 6 104 18 242 323 65 143 121 268 125 278 3 9 13 17 22 17 13 0 15 -37 15
-294 0 -162 3 -301 6 -310 9 -23 149 -23 158 0 9 24 6 643 -3 693 -13 65 -27
71 -158 71 -107 0 -115 -1 -136 -24 -12 -13 -65 -122 -116 -243 -144 -334
-158 -363 -176 -363 -18 0 -41 48 -181 373 -49 115 -99 220 -111 233 -21 23
-28 24 -138 24 -110 0 -117 -1 -141 -25z" fill="#ffffff"/>
<path d="M3032 1233 l3 -388 74 -3 c53 -2 77 1 82 10 5 7 9 61 9 120 l0 107
278 3 c274 3 277 3 322 28 29 17 53 41 70 70 23 42 25 55 25 175 0 104 -4 136
-17 161 -23 43 -71 81 -116 94 -22 6 -176 10 -385 10 l-347 0 2 -387z m651
226 c34 -15 47 -49 47 -120 0 -50 -4 -64 -25 -84 l-24 -25 -241 0 -240 0 0
120 0 120 230 0 c146 0 238 -4 253 -11z" fill="#ffffff"/>
<path d="M4174 1606 c-63 -20 -99 -45 -127 -89 -35 -54 -42 -103 -42 -297 0
-199 11 -246 70 -305 65 -66 93 -70 445 -70 l305 0 3 72 3 71 -288 4 c-215 3
-295 7 -315 17 -34 17 -58 67 -58 120 l0 41 328 2 327 3 0 60 0 60 -327 3
-328 2 0 38 c0 56 29 105 70 119 24 8 125 12 313 12 l277 1 0 75 0 75 -307 -1
c-221 0 -320 -4 -349 -13z" fill="#ffffff"/>
<path d="M4920 1546 c0 -58 3 -75 16 -80 9 -3 92 -6 185 -6 l169 0 0 -297 c0
-164 4 -304 9 -311 5 -9 29 -12 82 -10 l74 3 3 308 2 307 174 0 c96 0 181 3
190 6 13 5 16 22 16 80 l0 74 -460 0 -460 0 0 -74z" fill="#ffffff"/>
<path d="M6095 1611 c-151 -37 -189 -122 -183 -410 4 -194 13 -229 70 -288 60
-62 98 -68 423 -68 l290 0 55 26 c63 29 103 79 120 151 8 30 11 115 8 240 -3
175 -5 197 -25 234 -12 23 -36 53 -53 67 -59 50 -108 57 -404 56 -149 -1 -284
-4 -301 -8z m555 -159 c54 -27 60 -48 60 -222 0 -136 -2 -159 -20 -187 -26
-44 -55 -48 -305 -48 -305 0 -298 -5 -303 225 -2 133 0 160 15 190 27 53 57
59 303 59 185 1 220 -1 250 -17z" fill="#ffffff"/>
<path d="M1448 621 c-98 -20 -121 -66 -116 -237 3 -106 6 -127 24 -151 39 -52
63 -58 267 -61 l187 -3 0 45 0 46 -168 0 c-192 0 -212 6 -212 66 l0 34 190 0
190 0 0 40 0 40 -191 0 -190 0 3 37 c5 57 25 63 216 63 l163 0 -3 43 -3 42
-160 1 c-88 1 -176 -1 -197 -5z" fill="#404040"/>
<path d="M1912 614 c-22 -15 -22 -19 -22 -230 l0 -215 48 3 47 3 3 178 c1 99
6 177 11 175 5 -2 64 -75 131 -163 67 -88 131 -168 142 -177 14 -13 37 -18 78
-18 92 0 91 -4 88 243 l-3 212 -45 0 -45 0 -3 -177 c-1 -98 -6 -178 -11 -178
-4 0 -66 76 -137 169 -71 94 -139 175 -152 180 -34 16 -104 13 -130 -5z" fill="#404040"/>
<path d="M2634 619 c-90 -21 -119 -83 -112 -244 4 -115 18 -150 68 -179 31
-19 55 -21 220 -24 242 -4 234 -10 238 152 l4 116 -151 0 c-164 0 -170 -2
-157 -55 6 -25 8 -25 111 -25 l105 0 0 -38 c0 -21 -5 -43 -12 -50 -8 -8 -55
-12 -145 -12 -129 0 -135 1 -158 25 -23 22 -25 32 -25 107 0 47 6 94 13 108
l13 25 199 5 200 5 0 45 0 45 -185 2 c-102 0 -204 -3 -226 -8z" fill="#404040"/>
<path d="M3248 621 c-94 -19 -118 -63 -118 -223 0 -125 12 -165 63 -202 26
-19 45 -21 223 -24 l194 -4 0 46 0 46 -169 0 c-188 0 -203 5 -215 68 l-5 32
194 0 195 0 0 40 0 40 -188 0 c-104 0 -191 2 -194 5 -2 3 -3 19 0 35 7 52 38
60 222 60 l161 0 -3 43 -3 42 -160 1 c-88 1 -176 -1 -197 -5z" fill="#404040"/>
<path d="M3712 614 c-22 -15 -22 -19 -22 -230 l0 -215 48 3 47 3 3 178 c1 100
6 177 11 175 5 -2 64 -75 131 -163 66 -88 130 -168 141 -177 15 -13 39 -18 79
-18 92 0 91 -4 88 243 l-3 212 -45 0 -45 0 -3 -177 c-1 -98 -6 -178 -11 -178
-5 0 -66 76 -137 169 -71 93 -139 174 -152 180 -34 16 -104 13 -130 -5z" fill="#404040"/>
<path d="M4337 624 c-4 -4 -7 -108 -7 -231 l0 -224 48 3 47 3 3 93 3 92 149 0
149 0 3 -92 3 -93 48 -3 47 -3 -2 228 -3 228 -45 0 -45 0 -3 -92 -3 -93 -149
0 -149 0 -3 93 -3 92 -40 3 c-23 2 -44 0 -48 -4z" fill="#404040"/>
<path d="M5141 617 c-16 -8 -62 -83 -137 -220 -63 -114 -114 -212 -114 -217 0
-6 22 -10 49 -10 48 0 50 1 75 45 l27 45 153 0 154 0 26 -45 c26 -44 28 -45
77 -45 45 0 50 2 44 18 -19 52 -220 400 -241 420 -28 25 -75 29 -113 9z m112
-177 c26 -49 47 -91 47 -94 0 -4 -47 -6 -105 -6 -58 0 -105 3 -105 6 0 17 95
184 104 184 6 0 32 -41 59 -90z" fill="#404040"/>
<path d="M5568 624 c-5 -4 -8 -108 -8 -231 l0 -224 48 3 47 3 3 68 3 67 73 0
c41 0 86 2 102 5 27 5 34 -1 84 -69 l55 -75 53 -1 c28 0 52 3 52 8 0 4 -25 38
-55 77 l-54 69 29 12 c47 20 63 56 63 139 0 79 -14 113 -55 137 -26 14 -427
25 -440 12z m378 -98 c23 -17 27 -97 6 -118 -9 -9 -55 -14 -152 -16 l-140 -4
0 76 0 76 133 0 c99 0 138 -4 153 -14z" fill="#404040"/>
<path d="M6157 624 c-4 -4 -7 -108 -7 -231 l0 -224 48 3 47 3 0 225 0 225 -40
3 c-23 2 -44 0 -48 -4z" fill="#404040"/>
<path d="M6546 608 c-21 -19 -246 -415 -246 -432 0 -3 24 -6 53 -6 52 0 53 0
77 45 l25 45 155 0 155 0 25 -45 c24 -45 25 -45 78 -45 l53 0 -52 96 c-137
255 -188 340 -210 351 -38 20 -85 16 -113 -9z m125 -176 l50 -92 -110 0 -111
0 26 53 c46 90 76 138 86 135 5 -2 32 -45 59 -96z" fill="#404040"/>
</g>
</svg>
